#format: frame checksums
#version: 2
#hash: MD5
#tb 0: 1/24
#media_type 0: video
#codec_id 0: rawvideo
#dimensions 0: 640x480
#sar 0: 0/1
#stream#, dts,        pts, duration,     size, hash
0,          0,          0,        1,   460800, b3d774603a22dbf9e952465c0d295166
0,          1,          1,        1,   460800, d8f88e4269888dfadeb15bec662a3851
0,          2,          2,        1,   460800, 6d6e686070143f797f8f1eca43d9cf28
0,          3,          3,        1,   460800, a934f883968e71f22df044f043e61b14
0,          4,          4,        1,   460800, 83dc65c7703f43ce97c87eea7191f69e
0,          5,          5,        1,   460800, d633ab0dba64277b104ff5c2e1983424
0,          6,          6,        1,   460800, 6c7d2c7481bd11584d68dbb9262d8351
0,          7,          7,        1,   460800, 59b0bbc661b79ba82d726ca4d28255f2
0,          8,          8,        1,   460800, 821cd7ca0adc4d6a3f10419b6c4283a6
0,          9,          9,        1,   460800, 4655b1d6e8237b2e880f5b4140f7cf08
0,         10,         10,        1,   460800, 264858653f9ac0623ffc87ca5e4c9939
0,         11,         11,        1,   460800, b7129e91b9a6b4f8582747f12cafa52e
0,         12,         12,        1,   460800, 1f6596fba655e213fd5c2ea99a891138
0,         13,         13,        1,   460800, c8d67dc8fa8bdca263060ae542e55278
0,         14,         14,        1,   460800, 57aa680b64b140eaeaa7f4250c12b59e
0,         15,         15,        1,   460800, b87e8a9c0701cd8811dd38292b9994f7
0,         16,         16,        1,   460800, 2427eb2900c8e18da0f36e47799a5ed8
0,         17,         17,        1,   460800, 710a727a7ba51bc2938ca83376c6edd6
0,         18,         18,        1,   460800, 44d5ce80804d9ca470f9e5348c66e9b3
0,         19,         19,        1,   460800, 448e1fc3af42c4143e5fc4120090cdd6
0,         20,         20,        1,   460800, 7c2c4c61843cfdd033b8fa295766a524
0,         21,         21,        1,   460800, 20a197cb4e20857e135d4c10945987f6
0,         22,         22,        1,   460800, 7534b00e60f6920da7b767aef0876e65
0,         23,         23,        1,   460800, b88cedb84145f07226d5573aa57a1cce
0,         24,         24,        1,   460800, 620751271985df3728b6dbc627974183
0,         25,         25,        1,   460800, 643719b26ac93f93d1674fee97c58a35
0,         26,         26,        1,   460800, 5d3f8fa9abab0256afbf4285cd337804
0,         27,         27,        1,   460800, a6c302c54c6481088f9c27189ecda5a8
0,         28,         28,        1,   460800, 2851ad86c15a1dc7b6d4a0fe8f15de8f
0,         29,         29,        1,   460800, 42157005018908c810b1840856778482
0,         30,         30,        1,   460800, 2541042038568329922fd6f7187aad49
0,         31,         31,        1,   460800, 855b9ecfa9da66ef5971fcea7e515890
0,         32,         32,        1,   460800, 85df610183efce5de91946cb909019c9
0,         33,         33,        1,   460800, 369bce83d8aa0ac3cfb853b7e2886896
0,         34,         34,        1,   460800, b428e7b294e5ac0d316971e02a25b12a
0,         35,         35,        1,   460800, aa66321995b890e8dbd0d7b188ecb19c
0,         36,         36,        1,   460800, 1533e3c85fd9d1f6710442653b936ef0
0,         37,         37,        1,   460800, 99f3d38c95f1e4c0b442007a466f77cb
0,         38,         38,        1,   460800, 30e007d8a4c0f0cfa22c8b6051980b59
0,         39,         39,        1,   460800, fef21426b54048af617211234ee9b602
0,         40,         40,        1,   460800, ff9a482c793a8e9950c0aa7e2845ca0e
0,         41,         41,        1,   460800, ac0bb586786c35a51bdb6a5514ff54b9
0,         42,         42,        1,   460800, bb008ec74fe642d6350bb1b4c922a6b0
0,         43,         43,        1,   460800, 3e4255d1e817b9c6fa2cfbb0f198069d
0,         44,         44,        1,   460800, 0fe04242f0441fa5c90e69ca015f4b2d
0,         45,         45,        1,   460800, f14c12ec008a56c9aa99ef1be857ad23
0,         46,         46,        1,   460800, 43ac558397b699ac82f7e12810c7ade9
